<?xml version="1.0" standalone="no"?>
<!DOCTYPE svg PUBLIC "-//W3C//DTD SVG 20010904//EN"
 "http://www.w3.org/TR/2001/REC-SVG-20010904/DTD/svg10.dtd">
<svg version="1.0" xmlns="http://www.w3.org/2000/svg"
 width="512.000000pt" height="512.000000pt" viewBox="0 0 512.000000 512.000000"
 preserveAspectRatio="xMidYMid meet">
<metadata>
Created by potrace 1.11, written by Peter Selinger 2001-2013
</metadata>
<g transform="translate(0.000000,512.000000) scale(0.100000,-0.100000)"
fill="#000000" stroke="none">
<path d="M3478 4817 l-3 -152 -595 -6 c-327 -4 -611 -10 -630 -14 -19 -3 -84
-16 -144 -26 -476 -87 -861 -309 -1111 -641 -189 -250 -277 -508 -279 -813 -1
-170 12 -255 59 -401 159 -488 586 -896 1102 -1053 189 -58 250 -66 478 -66
219 0 280 8 360 47 70 35 103 66 134 129 89 177 -14 356 -229 397 -30 6 -98
16 -150 22 -117 14 -289 51 -395 86 -326 106 -554 336 -626 629 -28 111 -30
284 -6 393 74 336 356 603 741 702 172 44 270 50 781 50 l485 0 0 -151 c0
-117 3 -150 13 -146 64 24 1027 361 1292 452 186 64 343 119 349 122 9 6 -262
106 -1014 374 -217 78 -443 159 -502 180 l-107 38 -3 -152z"/>
<path d="M2600 3459 c-129 -10 -215 -39 -274 -90 -65 -57 -88 -107 -94 -199
-3 -68 -1 -80 25 -130 20 -39 45 -66 82 -92 59 -41 90 -49 276 -73 605 -78
962 -334 1051 -755 22 -103 14 -306 -15 -408 -53 -183 -169 -350 -321 -461
-172 -126 -331 -187 -590 -228 -98 -15 -186 -18 -605 -18 l-490 0 -5 151 -5
152 -445 -158 c-245 -87 -611 -219 -815 -293 -318 -117 -367 -137 -345 -145
14 -5 223 -80 465 -166 242 -85 598 -213 790 -284 l350 -128 3 153 3 153 527
0 c642 0 762 11 1067 97 460 130 853 447 1034 834 214 455 162 957 -142 1382
-130 180 -258 303 -452 432 -245 164 -496 250 -801 275 -137 11 -133 11 -274
-1z"/>
</g>
</svg>
