<svg id="Layer_1" data-name="Layer 1" xmlns="http://www.w3.org/2000/svg" viewBox="0 0 72 68">
    <defs>
        <style>.cls-1{isolation:isolate;}.cls-3{fill:#64bc46;}.cls-4{fill:#00aeef;}</style>
    </defs>
    <title>logo</title>
    <g id="Rectangle_1" data-name="Rectangle 1" class="cls-1">
        <g id="Rectangle_1-2" data-name="Rectangle 1">
            <path class="cls-3"
                  d="M60.7,36a23.37,23.37,0,0,0-8.9-10.9,23.53,23.53,0,0,0-7-3.2,25,25,0,0,0-8.3-.7,10.4,10.4,0,0,0-1.5.2,5.78,5.78,0,0,0-1.7.6,4.27,4.27,0,0,0-1.4,1.3,4.75,4.75,0,0,0-.6,2.2,3.17,3.17,0,0,0,.6,2,4.07,4.07,0,0,0,1.4,1.2,3.69,3.69,0,0,0,1.7.5,9.32,9.32,0,0,0,1.4.2A29.27,29.27,0,0,1,43.3,31a16.14,16.14,0,0,1,4.5,2.6,10,10,0,0,1,2.5,3.1,11,11,0,0,1,1.2,3.1,13.9,13.9,0,0,1,.3,2.7,14,14,0,0,1-.5,3.4,12.58,12.58,0,0,1-1.7,3.5,11.42,11.42,0,0,1-3.1,3.1,17.86,17.86,0,0,1-4.8,2.3,28.05,28.05,0,0,1-6.3.9H23.1V51.4L11.5,55.5,0,59.7l11.6,4.1L23.1,68V63.7H35.2A35.78,35.78,0,0,0,46.5,62a24.46,24.46,0,0,0,8.4-4.7,20,20,0,0,0,5.2-6.8,19.12,19.12,0,0,0,1.8-8.1A18.12,18.12,0,0,0,60.7,36Z"
                  transform="translate(0 0)"/>
        </g>
    </g>
    <g id="Rectangle_2" data-name="Rectangle 2" class="cls-1">
        <g id="Rectangle_2-2" data-name="Rectangle 2">
            <path class="cls-4"
                  d="M60.4,4.1L48.9,0V4.3H36.7A35.78,35.78,0,0,0,25.4,6,24.46,24.46,0,0,0,17,10.7a21,21,0,0,0-5.2,6.8A19.12,19.12,0,0,0,10,25.6,18.12,18.12,0,0,0,11.2,32a23.37,23.37,0,0,0,8.9,10.9,23.53,23.53,0,0,0,7,3.2,22.63,22.63,0,0,0,8.3.7,7.84,7.84,0,0,0,1.4-.2,5.78,5.78,0,0,0,1.7-.6,3.48,3.48,0,0,0,1.4-1.3,3.59,3.59,0,0,0,.6-2.2,3.17,3.17,0,0,0-.6-2,4.07,4.07,0,0,0-1.4-1.2,4.92,4.92,0,0,0-1.7-.6,7.84,7.84,0,0,0-1.4-.2A29.58,29.58,0,0,1,28.5,37a14.23,14.23,0,0,1-4.4-2.6,12.26,12.26,0,0,1-2.6-3.1,11.5,11.5,0,0,1-1.2-3.2,13.9,13.9,0,0,1-.3-2.7,14,14,0,0,1,.5-3.4,12.58,12.58,0,0,1,1.7-3.5,11.43,11.43,0,0,1,3.1-3.1,17.86,17.86,0,0,1,4.8-2.3,28.05,28.05,0,0,1,6.3-.9H48.5v4.3l11.6-4.1L72,8.3Z"
                  transform="translate(0 0)"/>
        </g>
    </g>
</svg>
