<svg id="Слой_1" data-name="Слой 1" xmlns="http://www.w3.org/2000/svg" viewBox="0 0 23 23"><defs><style>.cls-1{fill:#00aeef;}</style></defs><title>appsh</title><g id="Прямоугольник_скругл._углы_3" data-name="Прямоугольник скругл. углы 3"><g id="Прямоугольник_скругл._углы_3-2" data-name="Прямоугольник скругл. углы 3-2"><path class="cls-1" d="M12.69,0H10.31a2,2,0,0,0-2,2V4.38a2,2,0,0,0,2,2h2.38a2,2,0,0,0,2-2V2a2,2,0,0,0-2-2h0ZM4.38,8.31H2a2,2,0,0,0-2,2v2.38a2,2,0,0,0,2,2H4.38a2,2,0,0,0,2-2V10.31A2,2,0,0,0,4.38,8.31Zm8.31,0H10.31a2,2,0,0,0-2,2v2.38a2,2,0,0,0,2,2h2.38a2,2,0,0,0,2-2V10.31a2,2,0,0,0-2-2h0ZM4.38,16.63H2a2,2,0,0,0-2,2V21a2,2,0,0,0,2,2H4.38a2,2,0,0,0,2-2V18.63A2,2,0,0,0,4.38,16.63Zm8.31,0H10.31a2,2,0,0,0-2,2V21a2,2,0,0,0,2,2h2.38a2,2,0,0,0,2-2V18.63a2,2,0,0,0-2-2h0ZM21,0H18.63a2,2,0,0,0-2,2V4.38a2,2,0,0,0,2,2H21a2,2,0,0,0,2-2V2A2,2,0,0,0,21,0Zm0,8.31H18.63a2,2,0,0,0-2,2v2.38a2,2,0,0,0,2,2H21a2,2,0,0,0,2-2V10.31A2,2,0,0,0,21,8.31Zm0,8.31H18.63a2,2,0,0,0-2,2V21a2,2,0,0,0,2,2H21a2,2,0,0,0,2-2V18.63a2,2,0,0,0-2-2h0ZM1.31,6.36H5A1.31,1.31,0,0,0,6.36,5.1s0-.07,0-0.1V1.31A1.31,1.31,0,0,0,5.05,0H1.31A1.31,1.31,0,0,0,0,1.31V5A1.31,1.31,0,0,0,1.26,6.36H1.31Z" transform="translate(0 0)"/></g></g></svg>