<svg xmlns="http://www.w3.org/2000/svg" viewBox="0 0 30 30"><defs><style>.cls-1{isolation:isolate;}.cls-2{fill:#64bc46;}.cls-3{fill:#fff;fill-rule:evenodd;}</style></defs><title>email</title><g id="Эллипс_1" data-name="Эллипс 1" class="cls-1"><g id="Эллипс_1-2" data-name="Эллипс 1"><circle class="cls-2" cx="15" cy="15" r="15"/></g></g><g id="Фигура_1" data-name="Фигура 1" class="cls-1"><g id="Фигура_1-2" data-name="Фигура 1"><path class="cls-3" d="M15,17a2.32,2.32,0,0,1-1-.34L7,13v7a1,1,0,0,0,1,1H22a1,1,0,0,0,1-1V13l-7,3.66A2.32,2.32,0,0,1,15,17Zm7-8H8a1,1,0,0,0-1,1v0.76L15,15l8-4.2V10A1,1,0,0,0,22,9Z"/></g></g></svg>