<svg id="Слой_1" data-name="Слой 1" xmlns="http://www.w3.org/2000/svg" viewBox="0 0 277.2 68"><defs><style>.cls-1{isolation:isolate;}.cls-2{fill:#fff;}.cls-3{fill:#64bc46;}.cls-4{fill:#00aeef;}</style></defs><title>logo_white</title><g id="syncloud" class="cls-1"><g id="syncloud-2" data-name="syncloud"><path class="cls-2" d="M94.9,36.3a24.09,24.09,0,0,0-5.6-2.2,14,14,0,0,1-5-2.2,3.69,3.69,0,0,1-1.5-3,3.88,3.88,0,0,1,1.6-3.4,7.07,7.07,0,0,1,4.3-1.2,6.53,6.53,0,0,1,4.6,1.5,5.28,5.28,0,0,1,1.6,4.1h3.8a8.27,8.27,0,0,0-4.9-7.5,11,11,0,0,0-5.2-1.1,10.49,10.49,0,0,0-7,2.2A6.78,6.78,0,0,0,79,29a6.32,6.32,0,0,0,2.2,5,16.89,16.89,0,0,0,7,3.4,14.07,14.07,0,0,1,5.3,2.3A4.09,4.09,0,0,1,95,42.9a3.82,3.82,0,0,1-1.6,3.3,7.63,7.63,0,0,1-4.6,1.2,8.14,8.14,0,0,1-5.1-1.5,4.89,4.89,0,0,1-1.9-4.1H78a8,8,0,0,0,1.4,4.5,9.45,9.45,0,0,0,3.9,3.1,12.59,12.59,0,0,0,5.5,1.1A11.41,11.41,0,0,0,96,48.4a6.65,6.65,0,0,0,2.7-5.6,6.74,6.74,0,0,0-1-3.8A7.29,7.29,0,0,0,94.9,36.3Zm17.5-.4L105,21.6h-4.3l9.8,17.9V50.1h3.8V39.5l9.8-17.9h-4.3ZM146,43.7L131.6,21.6h-3.8V50.2h3.8v-22l14.4,22h3.8V21.6H146V43.7ZM161.3,27a6.84,6.84,0,0,1,5.7-2.7,6.53,6.53,0,0,1,4.6,1.5,8,8,0,0,1,2.1,5h3.8a10.7,10.7,0,0,0-3.2-7,10.28,10.28,0,0,0-7.3-2.5,10.77,10.77,0,0,0-6,1.6,10.59,10.59,0,0,0-4,4.6,16.8,16.8,0,0,0-1.4,7v2.7c0,4.1,1,7.3,3,9.7a10,10,0,0,0,8.1,3.6,10.8,10.8,0,0,0,7.5-2.5,10.12,10.12,0,0,0,3.3-7h-3.8c-0.4,2.4-1.1,4-2.2,5a7.42,7.42,0,0,1-4.8,1.4,6.29,6.29,0,0,1-5.4-2.7c-1.3-1.8-1.9-4.3-1.9-7.4V34.5c-0.2-3.2.5-5.8,1.9-7.5h0Zm25-5.4h-3.8V50.2h17.3V47.1H186.3V21.6Zm33.1,1.3a11.07,11.07,0,0,0-6-1.7,11.32,11.32,0,0,0-6,1.7,10.6,10.6,0,0,0-4,4.8A16.7,16.7,0,0,0,202,35v2.1a15.8,15.8,0,0,0,1.5,7.1,11.57,11.57,0,0,0,4,4.7,11.74,11.74,0,0,0,12,.1,10.6,10.6,0,0,0,4-4.8,18.27,18.27,0,0,0,1.4-7.3V35a18.27,18.27,0,0,0-1.4-7.3A11.45,11.45,0,0,0,219.4,22.9Zm1.7,14.2c0,3.3-.7,5.8-2.1,7.6a6.53,6.53,0,0,1-5.6,2.7,6.67,6.67,0,0,1-5.7-2.8,12.78,12.78,0,0,1-2.1-7.7V34.8q0-4.8,2.1-7.5a6.65,6.65,0,0,1,5.6-2.7,6.84,6.84,0,0,1,5.7,2.7c1.4,1.8,2,4.4,2,7.8v2h0.1ZM246.8,41a6.52,6.52,0,0,1-1.7,4.8,6.77,6.77,0,0,1-4.9,1.7,6.94,6.94,0,0,1-4.9-1.7,6.52,6.52,0,0,1-1.7-4.8V21.6h-3.7V41.1a9.18,9.18,0,0,0,2.8,7,10.63,10.63,0,0,0,7.5,2.5h1a10,10,0,0,0,6.8-2.9,8.9,8.9,0,0,0,2.5-6.6V21.6h-3.8V41h0.1Zm28.8-13.1a11.1,11.1,0,0,0-4.4-4.7,12.91,12.91,0,0,0-6.6-1.6h-8.1V50.2h7.9a13.07,13.07,0,0,0,6.7-1.7,11.35,11.35,0,0,0,4.5-4.7,15.81,15.81,0,0,0,1.6-7.1V34.9A16,16,0,0,0,275.6,27.9Zm-2.1,8.8c0,3.3-.8,5.9-2.4,7.7a8.67,8.67,0,0,1-6.8,2.7h-4V24.7h4.4a8,8,0,0,1,6.5,2.7c1.5,1.8,2.3,4.3,2.3,7.6v1.7Z" transform="translate(0 0)"/></g></g><g id="Прямоугольник_1" data-name="Прямоугольник 1" class="cls-1"><g id="Прямоугольник_1-2" data-name="Прямоугольник 1"><path class="cls-3" d="M60.7,36a23.37,23.37,0,0,0-8.9-10.9,23.53,23.53,0,0,0-7-3.2,25,25,0,0,0-8.3-.7,10.4,10.4,0,0,0-1.5.2,5.78,5.78,0,0,0-1.7.6,4.27,4.27,0,0,0-1.4,1.3,4.75,4.75,0,0,0-.6,2.2,3.17,3.17,0,0,0,.6,2,4.07,4.07,0,0,0,1.4,1.2,3.69,3.69,0,0,0,1.7.5,9.32,9.32,0,0,0,1.4.2A29.27,29.27,0,0,1,43.3,31a16.14,16.14,0,0,1,4.5,2.6,10,10,0,0,1,2.5,3.1,11,11,0,0,1,1.2,3.1,13.9,13.9,0,0,1,.3,2.7,14,14,0,0,1-.5,3.4,12.58,12.58,0,0,1-1.7,3.5,11.42,11.42,0,0,1-3.1,3.1,17.86,17.86,0,0,1-4.8,2.3,28.05,28.05,0,0,1-6.3.9H23.1V51.4L11.5,55.5,0,59.7l11.6,4.1L23.1,68V63.7H35.2A35.78,35.78,0,0,0,46.5,62a24.46,24.46,0,0,0,8.4-4.7,20,20,0,0,0,5.2-6.8,19.12,19.12,0,0,0,1.8-8.1A18.12,18.12,0,0,0,60.7,36Z" transform="translate(0 0)"/></g></g><g id="Прямоугольник_2" data-name="Прямоугольник 2" class="cls-1"><g id="Прямоугольник_2-2" data-name="Прямоугольник 2"><path class="cls-4" d="M60.4,4.1L48.9,0V4.3H36.7A35.78,35.78,0,0,0,25.4,6,24.46,24.46,0,0,0,17,10.7a21,21,0,0,0-5.2,6.8A19.12,19.12,0,0,0,10,25.6,18.12,18.12,0,0,0,11.2,32a23.37,23.37,0,0,0,8.9,10.9,23.53,23.53,0,0,0,7,3.2,22.63,22.63,0,0,0,8.3.7,7.84,7.84,0,0,0,1.4-.2,5.78,5.78,0,0,0,1.7-.6,3.48,3.48,0,0,0,1.4-1.3,3.59,3.59,0,0,0,.6-2.2,3.17,3.17,0,0,0-.6-2,4.07,4.07,0,0,0-1.4-1.2,4.92,4.92,0,0,0-1.7-.6,7.84,7.84,0,0,0-1.4-.2A29.58,29.58,0,0,1,28.5,37a14.23,14.23,0,0,1-4.4-2.6,12.26,12.26,0,0,1-2.6-3.1,11.5,11.5,0,0,1-1.2-3.2,13.9,13.9,0,0,1-.3-2.7,14,14,0,0,1,.5-3.4,12.58,12.58,0,0,1,1.7-3.5,11.43,11.43,0,0,1,3.1-3.1,17.86,17.86,0,0,1,4.8-2.3,28.05,28.05,0,0,1,6.3-.9H48.5v4.3l11.6-4.1L72,8.3Z" transform="translate(0 0)"/></g></g></svg>