<svg xmlns="http://www.w3.org/2000/svg" viewBox="0 0 12 12"><defs><style>.cls-1{isolation:isolate;}.cls-2{fill:#3e3f47;fill-rule:evenodd;}</style></defs><title>nameinput</title><g id="Прямоугольник_скругл._углы_2" data-name="Прямоугольник, скругл. углы 2" class="cls-1"><g id="Прямоугольник_скругл._углы_2-2" data-name="Прямоугольник, скругл. углы 2"><path class="cls-2" d="M8,8V7a1,1,0,0,0,.68-0.74A3.35,3.35,0,0,0,9,5V3A2.89,2.89,0,0,0,8.12.88,2.89,2.89,0,0,0,6,0,2.89,2.89,0,0,0,3.88.88,2.89,2.89,0,0,0,3,3V5a3.35,3.35,0,0,0,.32,1.26A1,1,0,0,0,4,7V8L0,10.57V12H12V10.57Z" transform="translate(0 0)"/></g></g></svg>