<svg xmlns="http://www.w3.org/2000/svg" viewBox="0 0 23.01 22.99"><defs><style>.cls-1{isolation:isolate;}.cls-2{fill:#fff;fill-rule:evenodd;}</style></defs><title>shutdown</title><g id="Прямоугольник_2" data-name="Прямоугольник 2" class="cls-1"><g id="Прямоугольник_2-2" data-name="Прямоугольник 2"><path class="cls-2" d="M10.51,9.77h2a1,1,0,0,0,.71-0.28,0.93,0.93,0,0,0,.29-0.69V1A0.93,0.93,0,0,0,13.21.29,1,1,0,0,0,12.5,0h-2A1,1,0,0,0,9.8.29,0.93,0.93,0,0,0,9.51,1V8.79a0.93,0.93,0,0,0,.29.69A1,1,0,0,0,10.51,9.77ZM20.91,5.26a11.35,11.35,0,0,0-5.42-4.1V4.4a8.49,8.49,0,0,1,3.29,3A7.88,7.88,0,0,1,20,11.72a8,8,0,0,1-2.49,5.9,8.29,8.29,0,0,1-6,2.44,8.29,8.29,0,0,1-6-2.44A8,8,0,0,1,3,11.72a7.88,7.88,0,0,1,1.24-4.3,8.48,8.48,0,0,1,3.29-3V1.16a11.35,11.35,0,0,0-5.42,4.1A10.76,10.76,0,0,0,0,11.72a10.85,10.85,0,0,0,.91,4.39A11.29,11.29,0,0,0,3.36,19.7,11.73,11.73,0,0,0,11.5,23a11.73,11.73,0,0,0,8.14-3.29,11.29,11.29,0,0,0,2.45-3.59A10.85,10.85,0,0,0,23,11.72,10.76,10.76,0,0,0,20.91,5.26Z" transform="translate(0 0)"/></g></g></svg>