<?xml version="1.0" encoding="UTF-8" standalone="no"?>
<svg
   xmlns:dc="http://purl.org/dc/elements/1.1/"
   xmlns:cc="http://creativecommons.org/ns#"
   xmlns:rdf="http://www.w3.org/1999/02/22-rdf-syntax-ns#"
   xmlns:svg="http://www.w3.org/2000/svg"
   xmlns="http://www.w3.org/2000/svg"
   xmlns:sodipodi="http://sodipodi.sourceforge.net/DTD/sodipodi-0.dtd"
   xmlns:inkscape="http://www.inkscape.org/namespaces/inkscape"
   height="200"
   width="200"
   version="1.1"
   x="0px"
   y="0px"
   viewBox="0 0 200 200"
   id="svg2136"
   sodipodi:docname="activation.svg"
   style="fill:#000000"
   inkscape:version="0.92.3 (2405546, 2018-03-11)">
  <metadata
     id="metadata2142">
    <rdf:RDF>
      <cc:Work
         rdf:about="">
        <dc:format>image/svg+xml</dc:format>
        <dc:type
           rdf:resource="http://purl.org/dc/dcmitype/StillImage" />
        <dc:title></dc:title>
      </cc:Work>
    </rdf:RDF>
  </metadata>
  <defs
     id="defs2140" />
  <sodipodi:namedview
     pagecolor="#ffffff"
     bordercolor="#666666"
     borderopacity="1"
     objecttolerance="10"
     gridtolerance="10"
     guidetolerance="10"
     inkscape:pageopacity="0"
     inkscape:pageshadow="2"
     inkscape:window-width="1920"
     inkscape:window-height="1016"
     id="namedview2138"
     showgrid="false"
     inkscape:zoom="1.18"
     inkscape:cx="20.762712"
     inkscape:cy="100"
     inkscape:window-x="0"
     inkscape:window-y="27"
     inkscape:window-maximized="1"
     inkscape:current-layer="svg2136" />
  <g
     transform="matrix(1.8317102,0,0,1.8317102,8.41449,-1736.0371)"
     id="g2134">
    <path
       style="color:#000000;text-indent:0;text-transform:none;direction:ltr;baseline-shift:baseline;display:inline;overflow:visible;visibility:visible;fill:#000000;fill-opacity:1;fill-rule:nonzero;stroke:none;enable-background:accumulate"
       d="m 15.3125,975.06531 c -3.48383,0 -6.3125,2.82867 -6.3125,6.3125 v 41.96879 c 0,3.4838 2.82867,6.3125 6.3125,6.3125 h 69.375 c 3.48383,0 6.3125,-2.8287 6.3125,-6.3125 v -41.96879 c 0,-3.48383 -2.82867,-6.3125 -6.3125,-6.3125 z m 0,1.71875 h 69.375 c 2.57143,0 4.625,2.02232 4.625,4.59375 v 41.96879 c 0,2.5714 -2.05357,4.5937 -4.625,4.5937 h -69.375 c -2.57143,0 -4.625,-2.0223 -4.625,-4.5937 v -41.96879 c 0,-2.57143 2.05357,-4.59375 4.625,-4.59375 z m 37.78125,9.59375 a 0.85008502,0.85008502 0 0 0 0.1875,1.6875 h 28.4375 a 0.85008502,0.85008502 0 1 0 0,-1.6875 h -28.4375 a 0.85008502,0.85008502 0 0 0 -0.1875,0 z m -22.4375,1.5625 c -3.16103,0.051 -5.70853,2.61983 -5.71875,5.78125 v 0.125 c 0.05169,3.20482 2.70143,5.77044 5.90625,5.71875 3.20482,-0.0517 5.73919,-2.70143 5.6875,-5.90625 -0.05169,-3.20482 -2.67018,-5.77044 -5.875,-5.71875 z m 0.53125,11.875 c -7.29695,0 -13.19516,5.96969 -13.21875,13.34379 l 13.21875,0.031 h 13.25 c 0,-7.391 -5.93633,-13.37504 -13.25,-13.37504 z M 61,1001.5028 a 0.86067742,0.86067742 0 1 0 0.09375,1.7188 h 20.625 a 0.8594,0.8594 0 0 0 0,-1.7188 h -20.625 a 0.85008502,0.85008502 0 0 0 -0.09375,0 z m -7.90625,15.1563 a 0.85008502,0.85008502 0 0 0 0.1875,1.6875 h 28.4375 a 0.85008502,0.85008502 0 1 0 0,-1.6875 h -28.4375 a 0.85008502,0.85008502 0 0 0 -0.1875,0 z"
       marker="none"
       visibility="visible"
       display="inline"
       overflow="visible"
       id="path2132"
       inkscape:connector-curvature="0" />
  </g>
</svg>
