<svg height="200" width="200" fill="#000000" xmlns="http://www.w3.org/2000/svg" xmlns:xlink="http://www.w3.org/1999/xlink" version="1.1" x="0px" y="0px" viewBox="0 0 24 24" enable-background="new 0 0 24 24" xml:space="preserve"><g><path d="M23.84,18.938l0.016-0.003C21.727,11.224,20.74,7.654,19.41,2.834l-0.011,0.002C19.107,1.78,18.149,1,17,1H7   C5.851,1,4.893,1.78,4.601,2.836L4.59,2.834c-1.33,4.82-2.316,8.39-4.445,16.101l0.016,0.003C0.066,19.278,0,19.63,0,20   c0,2.209,1.791,4,4,4h16c2.209,0,4-1.791,4-4C24,19.63,23.934,19.278,23.84,18.938z M5.543,3.144l0.004,0C5.707,2.489,6.295,2,7,2   h10c0.705,0,1.293,0.489,1.453,1.145l0.004,0c0.587,2.404,2.101,8.601,3.278,13.424c-0.476-0.218-0.996-0.353-1.554-0.353H3.818   c-0.557,0-1.078,0.131-1.553,0.349C3.443,11.741,4.956,5.548,5.543,3.144z M20,22.5H4c-1.375,0-2.489-1.11-2.498-2.482   c0-0.045,0.01-0.086,0.013-0.129c0.007-0.129,0.023-0.254,0.05-0.376c0.238-1.027,1.155-1.797,2.254-1.797h16.363   c1.099,0,2.016,0.77,2.254,1.797c0.026,0.122,0.043,0.247,0.05,0.376c0.003,0.043,0.013,0.084,0.013,0.129   C22.489,21.39,21.375,22.5,20,22.5z"/><circle cx="17" cy="20" r="1"/><circle cx="20" cy="20" r="1"/></g></svg>