<?xml version="1.0" encoding="UTF-8" standalone="no"?>
<svg
   xmlns:dc="http://purl.org/dc/elements/1.1/"
   xmlns:cc="http://creativecommons.org/ns#"
   xmlns:rdf="http://www.w3.org/1999/02/22-rdf-syntax-ns#"
   xmlns:svg="http://www.w3.org/2000/svg"
   xmlns="http://www.w3.org/2000/svg"
   xmlns:sodipodi="http://sodipodi.sourceforge.net/DTD/sodipodi-0.dtd"
   xmlns:inkscape="http://www.inkscape.org/namespaces/inkscape"
   height="200"
   width="200"
   version="1.1"
   x="0px"
   y="0px"
   viewBox="0 0 200 199.99999"
   enable-background="new 0 0 100 100"
   xml:space="preserve"
   id="svg6455"
   sodipodi:docname="network.svg"
   style="fill:#000000"
   inkscape:version="0.92.3 (2405546, 2018-03-11)"><metadata
     id="metadata6461"><rdf:RDF><cc:Work
         rdf:about=""><dc:format>image/svg+xml</dc:format><dc:type
           rdf:resource="http://purl.org/dc/dcmitype/StillImage" /><dc:title></dc:title></cc:Work></rdf:RDF></metadata><defs
     id="defs6459" /><sodipodi:namedview
     pagecolor="#ffffff"
     bordercolor="#666666"
     borderopacity="1"
     objecttolerance="10"
     gridtolerance="10"
     guidetolerance="10"
     inkscape:pageopacity="0"
     inkscape:pageshadow="2"
     inkscape:window-width="960"
     inkscape:window-height="1016"
     id="namedview6457"
     showgrid="false"
     scale-x="1"
     fit-margin-top="50"
     fit-margin-left="50"
     fit-margin-right="50"
     fit-margin-bottom="50"
     units="px"
     inkscape:zoom="1"
     inkscape:cx="125.32086"
     inkscape:cy="46.959798"
     inkscape:window-x="960"
     inkscape:window-y="27"
     inkscape:window-maximized="0"
     inkscape:current-layer="svg6455"
     viewbox-width="181" /><g
     id="g6453"
     transform="matrix(1.7624872,0,0,1.7624872,11.87564,11.87564)"><path
       d="m 59.622,67.119 c -0.725,-4.666 -4.758,-8.25 -9.622,-8.25 -4.865,0 -8.897,3.584 -9.623,8.25 H 18.625 v 3 h 21.752 c 0.726,4.664 4.758,8.25 9.623,8.25 4.864,0 8.897,-3.586 9.622,-8.25 h 21.753 v -3 z M 50,75.369 c -3.722,0 -6.75,-3.029 -6.75,-6.75 0,-3.723 3.028,-6.75 6.75,-6.75 3.722,0 6.75,3.027 6.75,6.75 0,3.721 -3.028,6.75 -6.75,6.75 z"
       id="path6449"
       inkscape:connector-curvature="0" /><path
       d="m 35.375,57.506 h 29.25 c 6.651,0 12.063,-5.41 12.063,-12.062 0,-5.92 -4.366,-10.956 -10.116,-11.895 C 64.194,26.482 57.521,21.631 50,21.631 c -7.521,0 -14.194,4.851 -16.571,11.917 -5.75,0.939 -10.116,5.975 -10.116,11.895 0,6.653 5.411,12.063 12.062,12.063 z M 34.69,36.417 35.747,36.338 36.026,35.316 C 37.74,29.025 43.486,24.631 50,24.631 c 6.514,0 12.26,4.394 13.975,10.685 l 0.278,1.022 1.057,0.079 c 4.698,0.352 8.378,4.317 8.378,9.027 0,4.997 -4.065,9.062 -9.063,9.062 h -29.25 c -4.997,0 -9.063,-4.065 -9.063,-9.062 10e-4,-4.71 3.681,-8.675 8.378,-9.027 z"
       id="path6451"
       inkscape:connector-curvature="0" /></g></svg>