<svg xmlns="http://www.w3.org/2000/svg" viewBox="0 0 23.02 22.99"><defs><style>.cls-1{isolation:isolate;}.cls-2{fill:#fff;fill-rule:evenodd;}</style></defs><title>settnigs</title><g id="Прямоугольник_4" data-name="Прямоугольник 4" class="cls-1"><g id="Прямоугольник_4-2" data-name="Прямоугольник 4"><path class="cls-2" d="M19.89,13.86l0-.12L23,13a12.07,12.07,0,0,0,.1-1.48A13.94,13.94,0,0,0,23,10l-3-.76,0-.12a10.33,10.33,0,0,0-.78-1.86L19,7.18l1.6-2.69a11.51,11.51,0,0,0-2.09-2.1L15.87,4,15.77,4a9.08,9.08,0,0,0-1.86-.78l-0.12,0L13,0.1A12,12,0,0,0,11.54,0Q11,0,10.06.1l-0.76,3-0.1,0A8.39,8.39,0,0,0,7.31,4L7.21,4,4.54,2.39a13.1,13.1,0,0,0-2.11,2.1L4,7.18,4,7.28a9.45,9.45,0,0,0-.76,1.86l0,0.12-3,.76A12.83,12.83,0,0,0,0,11.49,10.34,10.34,0,0,0,.15,13l3,0.76,0,0.12A9.12,9.12,0,0,0,4,15.72L4,15.82l-1.6,2.69a11.21,11.21,0,0,0,2.11,2.1L7.21,19,7.31,19a7.69,7.69,0,0,0,1.89.78l0.1,0,0.76,3a12,12,0,0,0,1.48.1q0.54,0,1.48-.1l0.76-3,0.12,0A8.82,8.82,0,0,0,15.77,19l0.1-.06,2.69,1.62a12.47,12.47,0,0,0,2.09-2.1L19,15.82l0.06-.1A10,10,0,0,0,19.89,13.86Zm-5.29.68a4.16,4.16,0,0,1-3,1.26,4.31,4.31,0,0,1-4.31-4.31,4.13,4.13,0,0,1,1.26-3,4.16,4.16,0,0,1,3-1.26,4.16,4.16,0,0,1,3,1.26,4.13,4.13,0,0,1,1.26,3A4.15,4.15,0,0,1,14.59,14.54Z" transform="translate(-0.03 0)"/></g></g></svg>