<svg id="Слой_1" data-name="Слой 1" xmlns="http://www.w3.org/2000/svg" viewBox="0 0 23.1 22.88"><defs><style>.cls-1{fill:#00aeef;}</style></defs><title>settingsh</title><g id="Прямоугольник_4" data-name="Прямоугольник 4"><g id="Прямоугольник_4-2" data-name="Прямоугольник 4-2"><path class="cls-1" d="M19.86,13.86V13.74L23,13a12.07,12.07,0,0,0,.1-1.48A13.94,13.94,0,0,0,23,10l-3-.76V9.12a10.33,10.33,0,0,0-.78-1.86L19,7.18l1.6-2.69a11.51,11.51,0,0,0-2.09-2.1L15.84,4h-0.1a9.08,9.08,0,0,0-1.86-.78H13.76L13,0.1A12,12,0,0,0,11.51,0Q11,0,10,.1l-0.76,3H9.17A8.39,8.39,0,0,0,7.28,4H7.18L4.51,2.39A13.1,13.1,0,0,0,2.4,4.49L4,7.18v0.1a9.45,9.45,0,0,0-.76,1.86V9.26l-3,.76A12.83,12.83,0,0,0,0,11.49,10.34,10.34,0,0,0,.12,13l3,0.76v0.12A9.12,9.12,0,0,0,4,15.72v0.1l-1.6,2.69a11.21,11.21,0,0,0,2.11,2.1L7.18,19h0.1a7.69,7.69,0,0,0,1.89.78h0.1l0.76,3a12,12,0,0,0,1.48.1q0.54,0,1.48-.1l0.76-3h0.12A8.82,8.82,0,0,0,15.74,19l0.1-.06,2.69,1.62a12.47,12.47,0,0,0,2.09-2.1L19,15.82l0.06-.1A10,10,0,0,0,19.86,13.86Zm-5.29.68a4.16,4.16,0,0,1-3,1.26,4.31,4.31,0,0,1-4.31-4.31h0a4.3,4.3,0,0,1,4.26-4.26,4.3,4.3,0,0,1,4.26,4.26,4.15,4.15,0,0,1-1.22,3.05h0Z" transform="translate(0.03 0)"/></g></g></svg>