<?xml version="1.0" encoding="UTF-8" standalone="no"?>
<svg
   xmlns:dc="http://purl.org/dc/elements/1.1/"
   xmlns:cc="http://creativecommons.org/ns#"
   xmlns:rdf="http://www.w3.org/1999/02/22-rdf-syntax-ns#"
   xmlns:svg="http://www.w3.org/2000/svg"
   xmlns="http://www.w3.org/2000/svg"
   xmlns:sodipodi="http://sodipodi.sourceforge.net/DTD/sodipodi-0.dtd"
   xmlns:inkscape="http://www.inkscape.org/namespaces/inkscape"
   height="200"
   width="200"
   version="1.1"
   x="0px"
   y="0px"
   viewBox="0 0 200 200"
   enable-background="new 0 0 24 24"
   xml:space="preserve"
   id="svg6384"
   sodipodi:docname="disk.svg"
   style="fill:#000000"
   inkscape:version="0.92.3 (2405546, 2018-03-11)"><metadata
     id="metadata6390"><rdf:RDF><cc:Work
         rdf:about=""><dc:format>image/svg+xml</dc:format><dc:type
           rdf:resource="http://purl.org/dc/dcmitype/StillImage" /><dc:title></dc:title></cc:Work></rdf:RDF></metadata><defs
     id="defs6388" /><sodipodi:namedview
     pagecolor="#ffffff"
     bordercolor="#666666"
     borderopacity="1"
     objecttolerance="10"
     gridtolerance="10"
     guidetolerance="10"
     inkscape:pageopacity="0"
     inkscape:pageshadow="2"
     inkscape:window-width="1920"
     inkscape:window-height="1016"
     id="namedview6386"
     showgrid="false"
     fit-margin-top="50"
     fit-margin-left="50"
     fit-margin-right="50"
     fit-margin-bottom="50"
     showborder="true"
     inkscape:zoom="1"
     inkscape:cx="144.78257"
     inkscape:cy="20.99476"
     inkscape:window-x="0"
     inkscape:window-y="27"
     inkscape:window-maximized="1"
     inkscape:current-layer="svg6384" /><g
     id="g6382"
     transform="matrix(4.3478261,0,0,4.3478261,47.826087,45.652174)"><path
       d="m 23.84,18.938 0.016,-0.003 C 21.727,11.224 20.74,7.654 19.41,2.834 L 19.399,2.836 C 19.107,1.78 18.149,1 17,1 H 7 C 5.851,1 4.893,1.78 4.601,2.836 L 4.59,2.834 c -1.33,4.82 -2.316,8.39 -4.445,16.101 l 0.016,0.003 C 0.066,19.278 0,19.63 0,20 c 0,2.209 1.791,4 4,4 h 16 c 2.209,0 4,-1.791 4,-4 0,-0.37 -0.066,-0.722 -0.16,-1.062 z M 5.543,3.144 H 5.547 C 5.707,2.489 6.295,2 7,2 h 10 c 0.705,0 1.293,0.489 1.453,1.145 h 0.004 c 0.587,2.404 2.101,8.601 3.278,13.424 -0.476,-0.218 -0.996,-0.353 -1.554,-0.353 H 3.818 c -0.557,0 -1.078,0.131 -1.553,0.349 C 3.443,11.741 4.956,5.548 5.543,3.144 Z M 20,22.5 H 4 c -1.375,0 -2.489,-1.11 -2.498,-2.482 0,-0.045 0.01,-0.086 0.013,-0.129 0.007,-0.129 0.023,-0.254 0.05,-0.376 0.238,-1.027 1.155,-1.797 2.254,-1.797 h 16.363 c 1.099,0 2.016,0.77 2.254,1.797 0.026,0.122 0.043,0.247 0.05,0.376 0.003,0.043 0.013,0.084 0.013,0.129 C 22.489,21.39 21.375,22.5 20,22.5 Z"
       id="path6376"
       inkscape:connector-curvature="0" /><circle
       cx="17"
       cy="20"
       r="1"
       id="circle6378" /><circle
       cx="20"
       cy="20"
       r="1"
       id="circle6380" /></g></svg>