<?xml version="1.0" encoding="UTF-8" standalone="no"?>
<svg
   xmlns:dc="http://purl.org/dc/elements/1.1/"
   xmlns:cc="http://creativecommons.org/ns#"
   xmlns:rdf="http://www.w3.org/1999/02/22-rdf-syntax-ns#"
   xmlns:svg="http://www.w3.org/2000/svg"
   xmlns="http://www.w3.org/2000/svg"
   xmlns:sodipodi="http://sodipodi.sourceforge.net/DTD/sodipodi-0.dtd"
   xmlns:inkscape="http://www.inkscape.org/namespaces/inkscape"
   height="200"
   width="200"
   version="1.1"
   x="0px"
   y="0px"
   viewBox="0 0 200 200"
   style="fill:#000000"
   xml:space="preserve"
   id="svg1521"
   sodipodi:docname="support.svg"
   inkscape:version="0.92.3 (2405546, 2018-03-11)"><metadata
     id="metadata1527"><rdf:RDF><cc:Work
         rdf:about=""><dc:format>image/svg+xml</dc:format><dc:type
           rdf:resource="http://purl.org/dc/dcmitype/StillImage" /><dc:title></dc:title></cc:Work></rdf:RDF></metadata><defs
     id="defs1525" /><sodipodi:namedview
     pagecolor="#ffffff"
     bordercolor="#666666"
     borderopacity="1"
     objecttolerance="10"
     gridtolerance="10"
     guidetolerance="10"
     inkscape:pageopacity="0"
     inkscape:pageshadow="2"
     inkscape:window-width="1920"
     inkscape:window-height="1016"
     id="namedview1523"
     showgrid="false"
     inkscape:zoom="1.18"
     inkscape:cx="20.762712"
     inkscape:cy="100"
     inkscape:window-x="0"
     inkscape:window-y="27"
     inkscape:window-maximized="1"
     inkscape:current-layer="svg1521" /><style
     type="text/css"
     id="style1513">
	.st0{fill:#000000;}
</style><path
     style="fill:#000000;stroke-width:3.22580647"
     d="m 100,50 c -27.419356,0 -50,22.580644 -50,50 0,27.41936 22.258064,50 50,50 27.74194,0 50,-22.58064 50,-50 0,-27.419356 -22.58064,-50 -50,-50 z m 0,7.418724 c 23.54839,0 42.58128,19.032888 42.58128,42.581276 0,23.54839 -19.03289,42.58128 -42.58128,42.58128 -23.548388,0 -42.581276,-19.03289 -42.581276,-42.58128 0,-23.548388 19.032888,-42.581276 42.581276,-42.581276 z m 0.32288,14.194808 c -9.35484,0 -18.710308,4.514872 -18.387728,16.450356 h 10.323212 c 0,-4.193552 2.580016,-7.418728 7.418724,-7.418728 3.548392,0 7.097402,1.612588 7.097402,6.12872 0,3.870964 -2.25775,5.483868 -6.12871,8.064516 -4.516132,3.225804 -7.419988,7.097084 -7.097408,13.226124 v 2.25869 h 10.323208 v -1.9358 c 0,-4.51613 1.6129,-5.80739 6.45161,-9.033202 3.87097,-2.580644 8.06452,-5.806452 8.06452,-12.903224 0,-10 -8.38741,-14.837452 -18.06483,-14.837452 z m -1.289992,43.869708 c -4.516128,0 -7.4203,2.58065 -7.4203,6.45162 0,3.87096 2.904172,6.45161 7.4203,6.45161 4.516132,0 7.418722,-2.58065 7.418722,-6.45161 0,-3.87097 -2.90259,-6.45162 -7.418722,-6.45162 z"
     id="path1515"
     inkscape:connector-curvature="0" /></svg>