<?xml version="1.0" encoding="UTF-8" standalone="no"?>
<svg
   xmlns:dc="http://purl.org/dc/elements/1.1/"
   xmlns:cc="http://creativecommons.org/ns#"
   xmlns:rdf="http://www.w3.org/1999/02/22-rdf-syntax-ns#"
   xmlns:svg="http://www.w3.org/2000/svg"
   xmlns="http://www.w3.org/2000/svg"
   xmlns:sodipodi="http://sodipodi.sourceforge.net/DTD/sodipodi-0.dtd"
   xmlns:inkscape="http://www.inkscape.org/namespaces/inkscape"
   height="200"
   width="200"
   version="1.1"
   x="0px"
   y="0px"
   viewBox="0 0 200 200"
   enable-background="new 0 0 100 100"
   xml:space="preserve"
   id="svg862"
   sodipodi:docname="updates.svg"
   style="fill:#000000"
   inkscape:version="0.92.3 (2405546, 2018-03-11)"><metadata
     id="metadata868"><rdf:RDF><cc:Work
         rdf:about=""><dc:format>image/svg+xml</dc:format><dc:type
           rdf:resource="http://purl.org/dc/dcmitype/StillImage" /><dc:title></dc:title></cc:Work></rdf:RDF></metadata><defs
     id="defs866" /><sodipodi:namedview
     pagecolor="#ffffff"
     bordercolor="#666666"
     borderopacity="1"
     objecttolerance="10"
     gridtolerance="10"
     guidetolerance="10"
     inkscape:pageopacity="0"
     inkscape:pageshadow="2"
     inkscape:window-width="1920"
     inkscape:window-height="1016"
     id="namedview864"
     showgrid="false"
     fit-margin-top="50"
     fit-margin-left="50"
     fit-margin-right="50"
     fit-margin-bottom="50"
     inkscape:zoom="2.8814601"
     inkscape:cx="73.936148"
     inkscape:cy="106.50221"
     inkscape:window-x="0"
     inkscape:window-y="27"
     inkscape:window-maximized="1"
     inkscape:current-layer="svg862" /><path
     d="m 139.49871,90.295994 c 0.005,-0.26464 0.008,-0.527594 0.008,-0.788862 4.2e-4,-21.78471 -17.72367,-39.507123 -39.5067,-39.507123 -21.783024,0 -39.508807,17.724097 -39.508807,39.507123 0,0.261268 0.0034,0.524222 0.0084,0.788862 -15.172098,1.434446 -27.080868,14.243336 -27.080868,29.784576 2.8e-5,16.49698 13.422468,29.91942 29.919451,29.91942 h 73.327024 c 16.49529,0 29.91605,-13.42244 29.91605,-29.91942 -0.002,-15.54124 -11.91046,-28.351816 -27.08255,-29.784576 z m -2.83519,52.961596 H 63.3365 c -12.780231,0 -23.177019,-10.39679 -23.177019,-23.17702 0,-12.77855 10.396788,-23.175334 23.177019,-23.175334 h 0.761892 c 0.95742,0 1.871016,-0.407916 2.511544,-1.122612 0.638844,-0.714694 0.945622,-1.665372 0.83943,-2.619422 -0.14664,-1.316454 -0.217442,-2.511546 -0.217442,-3.65607 0,-18.06796 14.698442,-32.764719 32.764716,-32.764719 18.06627,0 32.76472,14.698445 32.76472,32.764719 0,1.144524 -0.0708,2.339616 -0.21744,3.65607 -0.1062,0.952364 0.20058,1.904728 0.83943,2.619422 0.64052,0.714696 1.55412,1.122612 2.51154,1.122612 h 0.76526 c 12.77855,0 23.17365,10.396784 23.17365,23.175334 0.003,12.78023 -10.39173,23.17702 -23.17028,23.17702 z m -18.28877,-41.67312 -15.00522,15.0069 V 82.01295 c 0,-1.860904 -1.5103,-3.371204 -3.371204,-3.371204 -1.860904,0 -3.371202,1.5103 -3.371202,3.371204 v 34.57842 L 81.621902,101.58615 c -1.316454,-1.31645 -3.450426,-1.31645 -4.766882,0 -1.316454,1.31646 -1.316454,3.45043 0,4.76688 l 20.759866,20.75987 c 0.65907,0.65907 1.520412,0.98776 2.38344,0.98776 0.863024,0 1.724374,-0.32869 2.383444,-0.98776 l 20.75986,-20.75987 c 1.31646,-1.31645 1.31646,-3.45042 0,-4.76688 -1.31645,-1.31645 -3.44874,-1.31814 -4.76688,-0.002 z"
     id="path860"
     inkscape:connector-curvature="0"
     style="stroke-width:1.68560159" /></svg>