<?xml version="1.0" encoding="utf-8"?>
<!-- Generator: Adobe Illustrator 19.2.0, SVG Export Plug-In . SVG Version: 6.00 Build 0)  -->
<svg version="1.1" id="Слой_1" xmlns="http://www.w3.org/2000/svg" xmlns:xlink="http://www.w3.org/1999/xlink" x="0px" y="0px"
	 viewBox="0 0 30 30" style="enable-background:new 0 0 30 30;" xml:space="preserve">
<style type="text/css">
	.st0{fill:#3D444F;}
	.st1{fill:#FFFFFF;}
</style>
<title>facebook</title>
<g>
	<path class="st0" d="M30,15c0-8.3-6.7-15-15-15C6.7,0,0,6.7,0,15c0,8.3,6.7,15,15,15c0.1,0,0.2,0,0.3,0v-9.5h-3.9v-4.1h3.9v-2.7
		c0-3.4,1.3-5.5,4.6-5.5h3.3v4.1h-2c-0.2,0-0.3,0-0.5,0c-1,0.2-1.6,1.1-1.4,2v2.1h4.6l-0.6,4.1h-3.9c0,0,0,8.3,0,9
		C25.4,27.6,30,21.8,30,15z"/>
	<path class="st1" d="M23.1,20.4l0.6-4.1h-4.6v-2.1c-0.2-1,0.5-1.9,1.4-2c0.2,0,0.3,0,0.5,0h2V8.1h-3.3c-3.3,0-4.6,2.1-4.6,5.5v2.7
		h-3.9v4.1h3.9V30v0c1.4,0,2.7-0.2,3.9-0.6c0,0,0,0,0,0c0-0.6,0-9,0-9H23.1z"/>
</g>
</svg>
