<?xml version="1.0" encoding="iso-8859-1"?>
<!-- Generator: Adobe Illustrator 16.0.0, SVG Export Plug-In . SVG Version: 6.00 Build 0)  -->
<!DOCTYPE svg PUBLIC "-//W3C//DTD SVG 1.1//EN" "http://www.w3.org/Graphics/SVG/1.1/DTD/svg11.dtd">
<svg xmlns="http://www.w3.org/2000/svg" xmlns:xlink="http://www.w3.org/1999/xlink" version="1.1" id="Capa_1" x="0px" y="0px" width="512px" height="512px" viewBox="0 0 612.035 612.035" style="enable-background:new 0 0 612.035 612.035;" xml:space="preserve">
<g>
	<g>
		<path d="M323.128,56.236l5.646-9.57l40.17-40.169C271.247-13.921,165.482,13.786,89.65,89.646    C-16.421,195.717-28.355,360.261,53.875,479.49L10.98,522.386l137.7,19.667l-19.667-137.7L94.045,439.32    c-60.978-96.724-49.322-226.078,34.94-310.34C182.229,75.737,253.471,51.479,323.128,56.236z" fill="#FFFFFF"/>
		<path d="M581.392,69.979l-137.7-19.667l19.668,137.7l38.25-38.25c78.726,98.31,72.521,242.186-18.583,333.317    c-61.116,61.117-145.989,84.039-224.882,68.739l-45.65,45.649c105.654,33.799,226.05,8.791,309.895-75.054    c112.858-112.858,119.146-291.979,18.805-412.209L581.392,69.979z" fill="#FFFFFF"/>
	</g>
</g>
<g>
</g>
<g>
</g>
<g>
</g>
<g>
</g>
<g>
</g>
<g>
</g>
<g>
</g>
<g>
</g>
<g>
</g>
<g>
</g>
<g>
</g>
<g>
</g>
<g>
</g>
<g>
</g>
<g>
</g>
</svg>
