<svg xmlns="http://www.w3.org/2000/svg" viewBox="0 0 400.81 321.38">
    <defs>
        <style>
            .cls-1{isolation:isolate;}.cls-2{fill:#939597;}.cls-3{fill:#cdcdcd;}.cls-4{fill:#03aff0;fill-rule:evenodd;}.cls-5{fill:#2d353f;}.cls-6{fill:#fff;}.cls-7{fill:#fefeff;}
        </style>
    </defs>
    <title>error</title>
    <g id="Rectangle_8" data-name="Rectangle 8" class="cls-1">
        <g id="Rectangle_8-2" data-name="Rectangle 8">
            <rect class="cls-2" x="202.47" y="199.13" width="13.25" height="120.63"/>
        </g>
    </g>
    <g id="Rectangle_9" data-name="Rectangle 9" class="cls-1">
        <g id="Rectangle_9-2" data-name="Rectangle 9">
            <rect class="cls-3" x="212.41" y="197.47" width="2.5" height="121.44"/>
        </g>
    </g>
    <g id="Polygon_1" data-name="Polygon 1" class="cls-1">
        <g id="Polygon_1-2" data-name="Polygon 1">
            <polygon class="cls-4"
                     points="168.35 197.17 111.18 139.55 111.62 58.51 169.41 1.5 250.7 1.94 307.87 59.56 307.43 140.6 249.64 197.6 168.35 197.17"/>
            <path class="cls-5"
                  d="M170,9l80.05,0.43,56.29,56.74L305.93,146,249,202.1,169,201.67l-56.29-56.74,0.43-79.8L170,9m-1.22-3L110.12,63.87l-0.44,82.29,58,58.5,82.53,0.44,58.67-57.87,0.44-82.29-58-58.5L168.79,6h0Z"
                  transform="translate(0 -6)"/>
        </g>
    </g>
    <g id="Polygon_1_copy" data-name="Polygon 1 copy" class="cls-1">
        <g id="Polygon_1_copy-2" data-name="Polygon 1 copy">
            <path class="cls-6"
                  d="M175.76,23.05l68.41,0.37L292.28,71.9l-0.37,68.19-48.63,48-68.41-.37-48.11-48.48L127.14,71l48.63-48m-1.22-3-50.4,49.71-0.38,70.68,49.86,50.25,70.89,0.38,50.4-49.71,0.38-70.68L245.43,20.43,174.54,20h0Z"
                  transform="translate(0 -6)"/>
        </g>
    </g>
    <g id="ERROR" class="cls-1">
        <g id="ERROR-2" data-name="ERROR">
            <path class="cls-7"
                  d="M148,110.24h11.65v-4.7H148v-7h13.64v-4.9h-19.7V123h19.74v-4.86H148v-7.91Zm39.82-2.71a9,9,0,0,0,1.3-5A8,8,0,0,0,186.29,96q-2.83-2.32-8.05-2.32H167.3V123h6.07V112.26h4.83L183.72,123h6.51v-0.28l-6.37-12A8.89,8.89,0,0,0,187.82,107.53Zm-6-1.33a5,5,0,0,1-3.54,1.16h-4.9V98.54h4.88a4.93,4.93,0,0,1,3.63,1.19,4.43,4.43,0,0,1,1.18,3.27A4.14,4.14,0,0,1,181.8,106.2Zm34.52,1.33a9,9,0,0,0,1.3-5A8,8,0,0,0,214.8,96q-2.83-2.32-8.05-2.32H195.8V123h6.07V112.26h4.84L212.23,123h6.51v-0.28l-6.37-12A8.89,8.89,0,0,0,216.32,107.53Zm-6-1.33a5,5,0,0,1-3.54,1.16h-4.9V98.54h4.88a4.93,4.93,0,0,1,3.63,1.19,4.43,4.43,0,0,1,1.18,3.27A4.14,4.14,0,0,1,210.3,106.2ZM242.5,95a13,13,0,0,0-13.09,0,11.65,11.65,0,0,0-4.43,5.06,17.59,17.59,0,0,0-1.57,7.63v1.45a17.18,17.18,0,0,0,1.6,7.49,11.67,11.67,0,0,0,4.45,5,13,13,0,0,0,13.1,0,11.56,11.56,0,0,0,4.4-5,17.69,17.69,0,0,0,1.54-7.6v-1.31a17.55,17.55,0,0,0-1.57-7.61A11.65,11.65,0,0,0,242.5,95Zm-0.15,14.09q0,4.58-1.66,7a5.82,5.82,0,0,1-9.47-.09,12.48,12.48,0,0,1-1.66-7v-1.43q0-4.58,1.68-6.95a5.87,5.87,0,0,1,9.45,0q1.66,2.4,1.66,7v1.43Zm29.19,1.63a8.89,8.89,0,0,0,4-3.2,9,9,0,0,0,1.3-5A8,8,0,0,0,274,96q-2.83-2.32-8.05-2.32H255V123H261V112.26h4.83L271.4,123h6.51v-0.28Zm-2.06-4.53a5,5,0,0,1-3.54,1.16H261V98.54h4.88a4.93,4.93,0,0,1,3.63,1.19,4.43,4.43,0,0,1,1.18,3.27A4.14,4.14,0,0,1,269.48,106.2Z"
                  transform="translate(0 -6)"/>
        </g>
    </g>
    <g id="Rectangle_7" data-name="Rectangle 7" class="cls-1">
        <g id="Rectangle_7-2" data-name="Rectangle 7">
            <rect class="cls-5" x="200.81" y="199.13" width="3.31" height="118.97"/>
        </g>
    </g>
    <g id="Rectangle_7_copy" data-name="Rectangle 7 copy" class="cls-1">
        <g id="Rectangle_7_copy-2" data-name="Rectangle 7 copy">
            <rect class="cls-5" x="214.91" y="199.13" width="3.31" height="118.97"/>
        </g>
    </g>
    <g id="Rectangle_5" data-name="Rectangle 5" class="cls-1">
        <g id="Rectangle_5-2" data-name="Rectangle 5">
            <path class="cls-5"
                  d="M104.69,327.38h26.53v-4.12H104.69v4.13Zm207.16-4.12v4.13h58.84v-4.12H311.84Zm-261,4.13H96.41v-4.12H50.84v4.13Zm84.5,0h29.84v-4.12H135.34v4.13Zm132.59,0h32.31v-4.12H267.94v4.13Zm-98.62,0h94.47v-4.12H169.31v4.13Z"
                  transform="translate(0 -6)"/>
        </g>
    </g>
    <g id="Rectangle_6" data-name="Rectangle 6" class="cls-1">
        <g id="Rectangle_6-2" data-name="Rectangle 6">
            <rect class="cls-5" x="304" y="29.65" width="46.75" height="2.71"/>
        </g>
    </g>
    <g id="Rectangle_6_copy" data-name="Rectangle 6 copy" class="cls-1">
        <g id="Rectangle_6_copy-2" data-name="Rectangle 6 copy">
            <rect class="cls-5" x="377.77" y="30.65" width="23.04" height="2.71"/>
        </g>
    </g>
    <g id="Rectangle_6_copy_2" data-name="Rectangle 6 copy 2" class="cls-1">
        <g id="Rectangle_6_copy_2-2" data-name="Rectangle 6 copy 2">
            <rect class="cls-5" x="337.19" y="38.44" width="43.35" height="2.71"/>
        </g>
    </g>
    <g id="Rectangle_6_copy_3" data-name="Rectangle 6 copy 3" class="cls-1">
        <g id="Rectangle_6_copy_3-2" data-name="Rectangle 6 copy 3">
            <path class="cls-5"
                  d="M379.84,28.22A8.13,8.13,0,0,0,367.5,22a14.22,14.22,0,0,0-27.39-2.7,10.84,10.84,0,0,0-15.77,8.92h-8.16v2.71h11.12a8.1,8.1,0,0,1,12.5-8.65l2.46-.78A11.5,11.5,0,0,1,365,24.17c0,0.22,0,.43,0,0.65l2.61,0.87a5.76,5.76,0,0,1,10,5.23H388V28.22h-8.16Z"
                  transform="translate(0 -6)"/>
        </g>
    </g>
    <g id="Rectangle_6_copy_4" data-name="Rectangle 6 copy 4" class="cls-1">
        <g id="Rectangle_6_copy_4-2" data-name="Rectangle 6 copy 4">
            <rect class="cls-5" x="24.47" y="252.85" width="57.19" height="3.31"/>
        </g>
    </g>
    <g id="Rectangle_6_copy_4-3" data-name="Rectangle 6 copy 4" class="cls-1">
        <g id="Rectangle_6_copy_4-4" data-name="Rectangle 6 copy 4">
            <rect class="cls-5" x="109.81" y="252.85" width="28.19" height="3.31"/>
        </g>
    </g>
    <g id="Rectangle_6_copy_4-5" data-name="Rectangle 6 copy 4" class="cls-1">
        <g id="Rectangle_6_copy_4-6" data-name="Rectangle 6 copy 4">
            <rect class="cls-5" x="65.09" y="263.6" width="53.03" height="3.31"/>
        </g>
    </g>
    <g id="Rectangle_6_copy_4-7" data-name="Rectangle 6 copy 4" class="cls-1">
        <g id="Rectangle_6_copy_4-8" data-name="Rectangle 6 copy 4">
            <path class="cls-5"
                  d="M117.24,249.79a9.92,9.92,0,0,0-15.09-7.62,17.4,17.4,0,0,0-33.5-3.32,13.24,13.24,0,0,0-19.26,10.94h-10v3.28H53a9.91,9.91,0,0,1,15.29-10.57l3-1a14.09,14.09,0,0,1,27.78,3.28c0,0.27,0,.53,0,0.79l3.21,1.07a7,7,0,0,1,12.27,6.39h12.71v-3.28h-10Z"
                  transform="translate(0 -6)"/>
        </g>
    </g>
    <g id="Rectangle_6_copy_4-9" data-name="Rectangle 6 copy 4" class="cls-1">
        <g id="Rectangle_6_copy_4-10" data-name="Rectangle 6 copy 4">
            <rect class="cls-5" y="86.35" width="35.75" height="2.03"/>
        </g>
    </g>
    <g id="Rectangle_6_copy_4-11" data-name="Rectangle 6 copy 4" class="cls-1">
        <g id="Rectangle_6_copy_4-12" data-name="Rectangle 6 copy 4">
            <rect class="cls-5" x="53.38" y="86.35" width="17.63" height="2.03"/>
        </g>
    </g>
    <g id="Rectangle_6_copy_4-13" data-name="Rectangle 6 copy 4" class="cls-1">
        <g id="Rectangle_6_copy_4-14" data-name="Rectangle 6 copy 4">
            <rect class="cls-5" x="25.41" y="92.97" width="33.16" height="2.03"/>
        </g>
    </g>
    <g id="Rectangle_6_copy_4-15" data-name="Rectangle 6 copy 4" class="cls-1">
        <g id="Rectangle_6_copy_4-16" data-name="Rectangle 6 copy 4">
            <path class="cls-5"
                  d="M58,86.76a6.16,6.16,0,0,0-6.18-5.59,6.25,6.25,0,0,0-3.25.91,10.93,10.93,0,0,0-21-2.07,8.33,8.33,0,0,0-3.78-.9,8.22,8.22,0,0,0-8.26,7.66H9.34v2h8.49a6,6,0,0,1-.21-1.53,6.2,6.2,0,0,1,9.74-5l1.92-.6a8.82,8.82,0,0,1,17.37,2c0,0.16,0,.33,0,0.49l2,0.66a4.41,4.41,0,0,1,7.85,2.67,4.21,4.21,0,0,1-.21,1.27h8v-2H58Z"
                  transform="translate(0 -6)"/>
        </g>
    </g>
    <g id="Rectangle_6_copy_4-17" data-name="Rectangle 6 copy 4" class="cls-1">
        <g id="Rectangle_6_copy_4-18" data-name="Rectangle 6 copy 4">
            <rect class="cls-5" x="269" y="241.35" width="35.75" height="2.03"/>
        </g>
    </g>
    <g id="Rectangle_6_copy_4-19" data-name="Rectangle 6 copy 4" class="cls-1">
        <g id="Rectangle_6_copy_4-20" data-name="Rectangle 6 copy 4">
            <rect class="cls-5" x="322.38" y="241.35" width="17.63" height="2.03"/>
        </g>
    </g>
    <g id="Rectangle_6_copy_4-21" data-name="Rectangle 6 copy 4" class="cls-1">
        <g id="Rectangle_6_copy_4-22" data-name="Rectangle 6 copy 4">
            <rect class="cls-5" x="294.41" y="247.97" width="33.16" height="2.03"/>
        </g>
    </g>
    <g id="Rectangle_6_copy_4-23" data-name="Rectangle 6 copy 4" class="cls-1">
        <g id="Rectangle_6_copy_4-24" data-name="Rectangle 6 copy 4">
            <path class="cls-5"
                  d="M327,241.76a6.16,6.16,0,0,0-6.18-5.59,6.25,6.25,0,0,0-3.25.91,10.93,10.93,0,0,0-21-2.07,8.33,8.33,0,0,0-3.78-.9,8.22,8.22,0,0,0-8.26,7.66h-6.24v2h8.49a6,6,0,0,1-.21-1.53,6.2,6.2,0,0,1,9.74-5l1.92-.6a8.82,8.82,0,0,1,17.37,2c0,0.16,0,.33,0,0.49l2,0.66a4.41,4.41,0,0,1,7.85,2.67,4.21,4.21,0,0,1-.21,1.27h8v-2H327Z"
                  transform="translate(0 -6)"/>
        </g>
    </g>
</svg>