<svg xmlns="http://www.w3.org/2000/svg" viewBox="0 0 12 12">
    <defs>
        <style>.cls-1{isolation:isolate;}.cls-2{fill:#3e3f47;}</style>
    </defs>
    <title>pasinput</title>
    <g id="Rectangle_round._angle_2" data-name="Rectangle, round. angle 2" class="cls-1">
        <g id="Rectangle_round._angle_2-2" data-name="Rectangle, round. angle 2">
            <path class="cls-2"
                  d="M11.82,9.42L8.11,5.71A4.23,4.23,0,0,0,8.4,4.2,4.17,4.17,0,0,0,4.2,0,4.17,4.17,0,0,0,0,4.2,4.17,4.17,0,0,0,4.2,8.4a4.23,4.23,0,0,0,1.51-.29L6.6,9H7.8v1.2H9v1.2l0.42,0.42a0.54,0.54,0,0,0,.42.18H11.4a0.57,0.57,0,0,0,.6-0.6V9.84A0.54,0.54,0,0,0,11.82,9.42ZM3.3,4.8A1.5,1.5,0,1,1,4.8,3.3,1.49,1.49,0,0,1,3.3,4.8Z"
                  transform="translate(0)"/>
        </g>
    </g>
</svg>