<svg id="Layer_1" data-name="Layer 1" xmlns="http://www.w3.org/2000/svg" viewBox="0 0 23 23">
    <defs>
        <style>.cls-1{fill:#00aeef;}</style>
    </defs>
    <title>shutdownh</title>
    <g id="Rectangle_2" data-name="Rectangle 2">
        <g id="Rectangle_2-2" data-name="Rectangle 2-2">
            <path class="cls-1"
                  d="M10.51,9.77h2a1,1,0,0,0,.71-0.28,0.93,0.93,0,0,0,.29-0.69V1a0.93,0.93,0,0,0-.3-0.71A1,1,0,0,0,12.5,0h-2a1,1,0,0,0-.7.29A0.93,0.93,0,0,0,9.51,1V8.79a0.93,0.93,0,0,0,.29.69A1,1,0,0,0,10.51,9.77Zm10.4-4.51a11.35,11.35,0,0,0-5.42-4.1V4.4a8.49,8.49,0,0,1,3.29,3A7.88,7.88,0,0,1,20,11.72a8,8,0,0,1-2.49,5.9,8.29,8.29,0,0,1-6,2.44,8.29,8.29,0,0,1-6-2.44A8,8,0,0,1,3,11.72a7.88,7.88,0,0,1,1.24-4.3,8.48,8.48,0,0,1,3.29-3V1.16a11.35,11.35,0,0,0-5.42,4.1A11,11,0,0,0,.91,16.11,11.29,11.29,0,0,0,3.36,19.7a11.7,11.7,0,0,0,16.28,0,11.29,11.29,0,0,0,2.45-3.59,10.85,10.85,0,0,0,.91-4.4A10.76,10.76,0,0,0,20.91,5.26Z"
                  transform="translate(0 0)"/>
        </g>
    </g>
</svg>