<svg xmlns="http://www.w3.org/2000/svg" viewBox="0 0 12 9"><defs><style>.cls-1{isolation:isolate;}.cls-2{fill:#3e3f47;fill-rule:evenodd;}</style></defs><title>emailinput</title><g id="Rectangle_round._angle_2" data-name="Rectangle, round. angle 2" class="cls-1"><g id="Rectangle_round._angle_2-2" data-name="Rectangle, round. angle 2"><path class="cls-2" d="M6,6a1.74,1.74,0,0,1-.75-0.25L0,3V8.25A0.75,0.75,0,0,0,.75,9h10.5A0.75,0.75,0,0,0,12,8.25V3L6.75,5.75A1.74,1.74,0,0,1,6,6Zm5.25-6H0.75A0.75,0.75,0,0,0,0,.75V1.32L6,4.47l6-3.15V0.75A0.75,0.75,0,0,0,11.25,0Z" transform="translate(0)"/></g></g></svg>