<svg id="Layer_1" data-name="Layer 1" xmlns="http://www.w3.org/2000/svg" viewBox="0 0 27.01 23">
    <defs>
        <style>.cls-1{fill:#00aeef;}</style>
    </defs>
    <title>logouth</title>
    <g id="Rectangle_3" data-name="Rectangle 3">
        <g id="Rectangle_3-2" data-name="Rectangle 3-2">
            <path class="cls-1"
                  d="M4.77,18.2a2,2,0,0,1-.61-1.47V6.27A2.1,2.1,0,0,1,6.23,4.18H16.62V0.31A18.84,18.84,0,0,0,14.25.16l-4-.11L8.31,0A8,8,0,0,0,2.44,2.46,8.08,8.08,0,0,0,0,8.36v6.27a8.08,8.08,0,0,0,2.44,5.91A8,8,0,0,0,8.31,23h6.23a7.58,7.58,0,0,0,2.08-.31V18.82H6.23A2,2,0,0,1,4.77,18.2ZM27,11.5L18.7,4.18V8.36H12.46v6.27h6.23v4.18Z"
                  transform="translate(0 0)"/>
        </g>
    </g>
</svg>